# xmcd
#
# Track frame offsets:
#	150
#	22315
#	39559
#	59150
#	72091
#	94744
#	109302
#	119267
#	138054
#	151386
#	169603
#	179553
#	198065
#	217689
#	239677
#
# Disc length: 3368 seconds
#
# Revision: 1
# Processed by: cddbd v1.5.1PL2 Copyright (c) Steve Scherf et al.
# Submitted via: EasyCDDAExtractor 8.2.1.1
#
DISCID=d50d260f
DTITLE=Various Artist - Clone
DYEAR=2005
DGENRE=Blues
TTITLE0=Groove Armada - My friend
TTITLE1=Marcus Viana - Isis
TTITLE2=Legiao Urbana - Love in the afternoon
TTITLE3=Marcus Viana - Kana Maktuben
TTITLE4=Amr Diab - Nour el ain
TTITLE5=Jose Alberto - And I love her
TTITLE6=Marcus Viana - Kheops
TTITLE7=Michael Bolton - All for love
TTITLE8=Marcus Viana - A barca sagrada de Ra
TTITLE9=Amr Diab - El Alem Alem
TTITLE10=Marcus Viana - Dancas sagras\\das de isis
TTITLE11=Abdelli - Adagarghal
TTITLE12=Marcus Viana - Espiritual
TTITLE13=Badema - Urga
TTITLE14=Marcus Viana - A miragem
EXTD=
EXTT0=
EXTT1=
EXTT2=
EXTT3=
EXTT4=
EXTT5=
EXTT6=
EXTT7=
EXTT8=
EXTT9=
EXTT10=
EXTT11=
EXTT12=
EXTT13=
EXTT14=
PLAYORDER=
